<svg xmlns="http://www.w3.org/2000/svg" width="124" height="124" viewBox="0 0 124 124">
  <g fill="none" fill-rule="evenodd" transform="translate(12.5 24.5)">
    <path fill="#FEFEFE" d="M43.7309,52.9554 C46.7519,52.9554 47.7589,48.8874 45.0939,47.4584 L31.2839,40.9274 C29.4789,40.0744 28.8649,37.8064 29.9769,36.1394 C32.1509,32.8784 35.0909,27.4834 35.0909,22.1494 C35.0909,6.6434 23.7179,7.1514 23.7179,7.1514 C23.7179,7.1514 12.3439,6.6434 12.3439,22.1494 C12.3439,27.4834 15.2849,32.8784 17.4589,36.1394 C18.5699,37.8064 17.9569,40.0744 16.1509,40.9274 L2.3419,47.4584 C-0.3241,48.8874 0.6839,52.9554 3.7049,52.9554 L43.7309,52.9554 Z"/>
    <path stroke="#CDC1D9" stroke-linecap="round" stroke-linejoin="round" stroke-width="1.6" d="M43.7309,52.9554 C46.7519,52.9554 47.7589,48.8874 45.0939,47.4584 L31.2839,40.9274 C29.4789,40.0744 28.8649,37.8064 29.9769,36.1394 C32.1509,32.8784 35.0909,27.4834 35.0909,22.1494 C35.0909,6.6434 23.7179,7.1514 23.7179,7.1514 C23.7179,7.1514 12.3439,6.6434 12.3439,22.1494 C12.3439,27.4834 15.2849,32.8784 17.4589,36.1394 C18.5699,37.8064 17.9569,40.0744 16.1509,40.9274 L2.3419,47.4584 C-0.3241,48.8874 0.6839,52.9554 3.7049,52.9554 L43.7309,52.9554 Z"/>
    <path fill="#FEFEFE" d="M37.6821,27.3256 L37.6821,27.3256 C35.9221,27.3256 34.4951,25.8986 34.4951,24.1376 L34.4951,17.7636 C34.4951,16.0036 35.9221,14.5766 37.6821,14.5766 C39.4431,14.5766 40.8701,16.0036 40.8701,17.7636 L40.8701,24.1376 C40.8701,25.8986 39.4431,27.3256 37.6821,27.3256"/>
    <path stroke="#CDC1D9" stroke-linecap="round" stroke-linejoin="round" stroke-width="1.6" d="M37.6821,27.3256 L37.6821,27.3256 C35.9221,27.3256 34.4951,25.8986 34.4951,24.1376 L34.4951,17.7636 C34.4951,16.0036 35.9221,14.5766 37.6821,14.5766 C39.4431,14.5766 40.8701,16.0036 40.8701,17.7636 L40.8701,24.1376 C40.8701,25.8986 39.4431,27.3256 37.6821,27.3256 Z"/>
    <path fill="#FEFEFE" d="M9.6078,27.3256 L9.6078,27.3256 C7.8478,27.3256 6.4208,25.8986 6.4208,24.1376 L6.4208,17.7636 C6.4208,16.0036 7.8478,14.5766 9.6078,14.5766 C11.3688,14.5766 12.7958,16.0036 12.7958,17.7636 L12.7958,24.1376 C12.7958,25.8986 11.3688,27.3256 9.6078,27.3256"/>
    <path stroke="#CDC1D9" stroke-linecap="round" stroke-linejoin="round" stroke-width="1.6" d="M9.6078 27.3256L9.6078 27.3256C7.8478 27.3256 6.4208 25.8986 6.4208 24.1376L6.4208 17.7636C6.4208 16.0036 7.8478 14.5766 9.6078 14.5766 11.3688 14.5766 12.7958 16.0036 12.7958 17.7636L12.7958 24.1376C12.7958 25.8986 11.3688 27.3256 9.6078 27.3256zM9.6078 14.5765C9.6078 14.5765 11.3548 3.9355 23.7178 3.9355 36.0808 3.9355 37.6818 14.5765 37.6818 14.5765"/>
    <path fill="#FEFEFE" d="M84.2768,49.4603 L91.4978,49.4603 C93.2008,49.4603 94.5108,47.3533 94.2798,44.9873 C94.2798,44.9873 92.8568,38.3083 92.6748,36.0803 C92.3728,32.3633 92.3398,21.2113 92.3398,21.2113 C90.6678,4.1863 79.4288,-4.9117 69.2778,4.7273 C68.9628,5.0263 68.6438,5.3413 68.3248,5.6713 L66.6898,5.1413 C63.8738,4.6333 60.4028,11.5163 59.9698,13.8383 C59.2138,17.8913 59.0938,27.9623 58.3548,36.0803 C57.9558,40.4683 56.7538,44.2853 56.5838,46.2723 C56.4228,48.1473 57.9898,49.4603 59.3368,49.4603 L66.9238,49.4603 L84.2768,49.4603 Z"/>
    <path stroke="#CDC1D9" stroke-linecap="round" stroke-linejoin="round" stroke-width="1.6" d="M84.2768,49.4603 L91.4978,49.4603 C93.2008,49.4603 94.5108,47.3533 94.2798,44.9873 C94.2798,44.9873 92.8568,38.3083 92.6748,36.0803 C92.3728,32.3633 92.3398,21.2113 92.3398,21.2113 C90.6678,4.1863 79.4288,-4.9117 69.2778,4.7273 C68.9628,5.0263 68.6438,5.3413 68.3248,5.6713 L66.6898,5.1413 C63.8738,4.6333 60.4028,11.5163 59.9698,13.8383 C59.2138,17.8913 59.0938,27.9623 58.3548,36.0803 C57.9558,40.4683 56.7538,44.2853 56.5838,46.2723 C56.4228,48.1473 57.9898,49.4603 59.3368,49.4603 L66.9238,49.4603 L84.2768,49.4603 Z"/>
    <path fill="#FEFEFE" d="M64.6332,25.891 C65.5332,29.901 67.6452,33.645 69.3082,36.139 C70.4192,37.806 69.8062,40.075 68.0002,40.928 L54.1922,47.458 C51.5262,48.887 52.5342,52.955 55.5552,52.955 L95.5802,52.955 C98.6002,52.955 99.6092,48.887 96.9432,47.458 L83.1332,40.928 C81.3282,40.075 80.7142,37.806 81.8262,36.139 C84.0002,32.879 86.9402,27.485 86.9402,22.151 C86.9402,6.645 75.5682,7.154 75.5682,7.154 L64.6332,25.891 Z"/>
    <path stroke="#CDC1D9" stroke-linecap="round" stroke-linejoin="round" stroke-width="1.6" d="M64.6332,25.891 C65.5332,29.901 67.6452,33.645 69.3082,36.139 C70.4192,37.806 69.8062,40.075 68.0002,40.928 L54.1922,47.458 C51.5262,48.887 52.5342,52.955 55.5552,52.955 L95.5802,52.955 C98.6002,52.955 99.6092,48.887 96.9432,47.458 L83.1332,40.928 C81.3282,40.075 80.7142,37.806 81.8262,36.139 C84.0002,32.879 86.9402,27.485 86.9402,22.151 C86.9402,6.645 75.5682,7.154 75.5682,7.154 L64.6332,25.891 Z"/>
    <path fill="#FEFEFE" d="M69.4516,31.4525 C69.4446,31.3365 69.4316,31.2225 69.4236,31.1065 C70.7826,30.2085 71.6766,28.7335 71.6766,27.0575 C71.6766,24.6295 69.8066,22.6165 67.3426,22.1895 C67.5466,21.6625 67.6766,21.1015 67.6766,20.5095 C67.6766,17.7695 65.3026,15.5495 62.3746,15.5495 C62.1276,15.5495 61.8906,15.5865 61.6526,15.6165 C61.5306,12.9785 59.2236,10.8705 56.3746,10.8705 C54.7466,10.8705 53.3066,11.5725 52.3356,12.6525 C51.8756,12.5605 51.4106,12.4795 50.9406,12.4155 C50.0216,10.9385 48.3316,9.9345 46.3746,9.9345 C44.1406,9.9345 42.2386,11.2305 41.4576,13.0595 C41.3136,13.0995 41.1716,13.1425 41.0286,13.1855 C40.0766,12.3355 38.7946,11.8065 37.3746,11.8065 C34.4466,11.8065 32.0726,14.0265 32.0726,16.7665 C32.0726,17.0155 32.1126,17.2545 32.1506,17.4935 C31.8956,17.4575 31.6396,17.4205 31.3746,17.4205 C28.4466,17.4205 26.0726,19.6405 26.0726,22.3805 C26.0726,23.2985 26.3566,24.1465 26.8216,24.8845 C25.1896,25.7295 24.0726,27.3375 24.0726,29.2065 C24.0726,30.7435 24.8366,32.0995 26.0096,33.0105 C26.0146,33.2325 26.0186,33.4555 26.0326,33.6765 C24.8466,34.5855 24.0726,35.9505 24.0726,37.4975 C24.0726,39.5015 25.3486,41.2175 27.1776,42.0005 C26.9176,42.5855 26.7706,43.2255 26.7706,43.8995 C26.7706,46.6395 29.1446,48.8595 32.0726,48.8595 C32.0726,51.5995 34.4466,53.8205 37.3746,53.8205 C39.0166,53.8205 40.4666,53.1065 41.4386,52.0095 C43.4336,52.5735 45.5486,52.8805 47.7396,52.8805 C50.1336,52.8805 52.4326,52.5135 54.5866,51.8455 C55.3986,52.3175 56.3476,52.6025 57.3746,52.6025 C59.9716,52.6025 62.1226,50.8535 62.5786,48.5485 C63.1416,48.7385 62.7406,48.8595 63.3746,48.8595 C66.3026,48.8595 68.1656,46.5915 68.6766,43.8995 C68.8846,42.8045 68.9766,41.1185 67.8876,40.2095 C70.0726,39.5985 71.6766,37.7235 71.6766,35.4785 C71.6766,33.8155 70.7936,32.3525 69.4516,31.4525"/>
    <path stroke="#7A599E" stroke-linecap="round" stroke-linejoin="round" stroke-width="1.6" d="M69.4516,31.4525 C69.4446,31.3365 69.4316,31.2225 69.4236,31.1065 C70.7826,30.2085 71.6766,28.7335 71.6766,27.0575 C71.6766,24.6295 69.8066,22.6165 67.3426,22.1895 C67.5466,21.6625 67.6766,21.1015 67.6766,20.5095 C67.6766,17.7695 65.3026,15.5495 62.3746,15.5495 C62.1276,15.5495 61.8906,15.5865 61.6526,15.6165 C61.5306,12.9785 59.2236,10.8705 56.3746,10.8705 C54.7466,10.8705 53.3066,11.5725 52.3356,12.6525 C51.8756,12.5605 51.4106,12.4795 50.9406,12.4155 C50.0216,10.9385 48.3316,9.9345 46.3746,9.9345 C44.1406,9.9345 42.2386,11.2305 41.4576,13.0595 C41.3136,13.0995 41.1716,13.1425 41.0286,13.1855 C40.0766,12.3355 38.7946,11.8065 37.3746,11.8065 C34.4466,11.8065 32.0726,14.0265 32.0726,16.7665 C32.0726,17.0155 32.1126,17.2545 32.1506,17.4935 C31.8956,17.4575 31.6396,17.4205 31.3746,17.4205 C28.4466,17.4205 26.0726,19.6405 26.0726,22.3805 C26.0726,23.2985 26.3566,24.1465 26.8216,24.8845 C25.1896,25.7295 24.0726,27.3375 24.0726,29.2065 C24.0726,30.7435 24.8366,32.0995 26.0096,33.0105 C26.0146,33.2325 26.0186,33.4555 26.0326,33.6765 C24.8466,34.5855 24.0726,35.9505 24.0726,37.4975 C24.0726,39.5015 25.3486,41.2175 27.1776,42.0005 C26.9176,42.5855 26.7706,43.2255 26.7706,43.8995 C26.7706,46.6395 29.1446,48.8595 32.0726,48.8595 C32.0726,51.5995 34.4466,53.8205 37.3746,53.8205 C39.0166,53.8205 40.4666,53.1065 41.4386,52.0095 C43.4336,52.5735 45.5486,52.8805 47.7396,52.8805 C50.1336,52.8805 52.4326,52.5135 54.5866,51.8455 C55.3986,52.3175 56.3476,52.6025 57.3746,52.6025 C59.9716,52.6025 62.1226,50.8535 62.5786,48.5485 C63.1416,48.7385 62.7406,48.8595 63.3746,48.8595 C66.3026,48.8595 68.1656,46.5915 68.6766,43.8995 C68.8846,42.8045 68.9766,41.1185 67.8876,40.2095 C70.0726,39.5985 71.6766,37.7235 71.6766,35.4785 C71.6766,33.8155 70.7936,32.3525 69.4516,31.4525 Z"/>
    <g transform="translate(21 27.003)">
      <path fill="#F0EAF1" d="M16.0102,0.8137 C14.7542,3.2587 13.9102,6.5797 13.9102,11.0857 C13.9102,17.1667 17.2622,23.3157 19.7392,27.0317 C21.0072,28.9317 20.3072,31.5177 18.2492,32.4907 L2.5092,39.9337 C-0.5288,41.5627 0.6192,46.2007 4.0632,46.2007 L49.6862,46.2007 C53.1282,46.2007 54.2782,41.5627 51.2392,39.9337 L35.4982,32.4907 C33.4422,31.5177 32.7412,28.9317 34.0082,27.0317 C36.4872,23.3157 39.8372,17.1667 39.8372,11.0857 C39.8372,10.5177 39.8242,9.9677 39.7982,9.4367"/>
      <path stroke="#7A599E" stroke-linecap="round" stroke-linejoin="round" stroke-width="1.6" d="M16.0102,0.8137 C14.7542,3.2587 13.9102,6.5797 13.9102,11.0857 C13.9102,17.1667 17.2622,23.3157 19.7392,27.0317 C21.0072,28.9317 20.3072,31.5177 18.2492,32.4907 L2.5092,39.9337 C-0.5288,41.5627 0.6192,46.2007 4.0632,46.2007 L49.6862,46.2007 C53.1282,46.2007 54.2782,41.5627 51.2392,39.9337 L35.4982,32.4907 C33.4422,31.5177 32.7412,28.9317 34.0082,27.0317 C36.4872,23.3157 39.8372,17.1667 39.8372,11.0857 C39.8372,10.5177 39.8242,9.9677 39.7982,9.4367"/>
    </g>
    <g transform="translate(21 24.003)">
      <path fill="#F0EAF1" d="M12.5287,0.4973 C13.1607,2.4253 14.9707,3.8163 17.1067,3.8163 C18.4807,3.8163 19.7137,3.2323 20.5917,2.3083 C21.3017,4.0863 23.0297,5.3463 25.0587,5.3463 C26.2867,5.3463 27.3947,4.8713 28.2457,4.1133 C28.9037,5.9953 30.6727,7.3523 32.7747,7.3523 C33.3697,7.3523 33.9317,7.2303 34.4577,7.0333 C34.4507,7.1413 34.4247,7.2433 34.4247,7.3523 C34.4247,10.0183 36.5827,12.1803 39.2437,12.1803 C40.8917,12.1803 42.3477,11.3503 43.2157,10.0833 L39.7987,12.4363 C39.8247,12.9683 39.8377,13.5183 39.8377,14.0863 C39.8377,20.1663 36.4867,26.3153 34.0077,30.0313 C32.7417,31.9323 33.4417,34.5183 35.4987,35.4903 L51.2397,42.9343 C54.2777,44.5623 53.1287,49.2003 49.6857,49.2003 L4.0627,49.2003 C0.6197,49.2003 -0.5293,44.5623 2.5087,42.9343 L18.2497,35.4903 C20.3067,34.5183 21.0077,31.9323 19.7397,30.0313 C17.2617,26.3153 13.9107,20.1663 13.9107,14.0863 C13.9107,9.5793 14.7547,6.2593 16.0097,3.8133"/>
      <path stroke="#7A599E" stroke-linecap="round" stroke-linejoin="round" stroke-width="1.6" d="M12.5287,0.4973 C13.1607,2.4253 14.9707,3.8163 17.1067,3.8163 C18.4807,3.8163 19.7137,3.2323 20.5917,2.3083 C21.3017,4.0863 23.0297,5.3463 25.0587,5.3463 C26.2867,5.3463 27.3947,4.8713 28.2457,4.1133 C28.9037,5.9953 30.6727,7.3523 32.7747,7.3523 C33.3697,7.3523 33.9317,7.2303 34.4577,7.0333 C34.4507,7.1413 34.4247,7.2433 34.4247,7.3523 C34.4247,10.0183 36.5827,12.1803 39.2437,12.1803 C40.8917,12.1803 42.3477,11.3503 43.2157,10.0833 L39.7987,12.4363 C39.8247,12.9683 39.8377,13.5183 39.8377,14.0863 C39.8377,20.1663 36.4867,26.3153 34.0077,30.0313 C32.7417,31.9323 33.4417,34.5183 35.4987,35.4903 L51.2397,42.9343 C54.2777,44.5623 53.1287,49.2003 49.6857,49.2003 L4.0627,49.2003 C0.6197,49.2003 -0.5293,44.5623 2.5087,42.9343 L18.2497,35.4903 C20.3067,34.5183 21.0077,31.9323 19.7397,30.0313 C17.2617,26.3153 13.9107,20.1663 13.9107,14.0863 C13.9107,9.5793 14.7547,6.2593 16.0097,3.8133"/>
    </g>
    <path fill="#F0EAF1" d="M62.1401,35.1996 C62.1401,35.1996 61.8001,34.3136 55.4811,34.6786 C55.4811,34.6786 51.2981,34.6266 48.9531,36.7626 C48.9531,36.7626 49.9951,42.4446 53.1231,43.3306 C55.0251,43.8696 56.6951,43.5986 57.7121,43.3036 C58.5121,43.0726 59.2261,42.6026 59.7401,41.9476 C60.2791,41.2606 60.8791,40.1806 61.1021,38.6316 C61.1471,38.3186 61.2401,38.0146 61.3921,37.7386 C61.5571,37.4376 61.8061,37.0286 62.1401,36.6066 L62.1401,35.1996 Z"/>
    <path stroke="#7A599E" stroke-linecap="round" stroke-linejoin="round" stroke-width="1.6" d="M62.1401,35.1996 C62.1401,35.1996 61.8001,34.3136 55.4811,34.6786 C55.4811,34.6786 51.2981,34.6266 48.9531,36.7626 C48.9531,36.7626 49.9951,42.4446 53.1231,43.3306 C55.0251,43.8696 56.6951,43.5986 57.7121,43.3036 C58.5121,43.0726 59.2261,42.6026 59.7401,41.9476 C60.2791,41.2606 60.8791,40.1806 61.1021,38.6316 C61.1471,38.3186 61.2401,38.0146 61.3921,37.7386 C61.5571,37.4376 61.8061,37.0286 62.1401,36.6066 L62.1401,35.1996 Z"/>
    <path fill="#F0EAF1" d="M33.6088,35.1996 C33.6088,35.1996 33.9488,34.3136 40.2678,34.6786 C40.2678,34.6786 44.4508,34.6266 46.7958,36.7626 C46.7958,36.7626 45.7538,42.4446 42.6258,43.3306 C40.7238,43.8696 39.0538,43.5986 38.0368,43.3036 C37.2368,43.0726 36.5218,42.6026 36.0088,41.9476 C35.4698,41.2606 34.8698,40.1806 34.6468,38.6316 C34.6018,38.3186 34.5088,38.0146 34.3568,37.7386 C34.1918,37.4376 33.9428,37.0286 33.6088,36.6066 L33.6088,35.1996 Z"/>
    <path stroke="#7A599E" stroke-linecap="round" stroke-linejoin="round" stroke-width="1.6" d="M33.6088,35.1996 C33.6088,35.1996 33.9488,34.3136 40.2678,34.6786 C40.2678,34.6786 44.4508,34.6266 46.7958,36.7626 C46.7958,36.7626 45.7538,42.4446 42.6258,43.3306 C40.7238,43.8696 39.0538,43.5986 38.0368,43.3036 C37.2368,43.0726 36.5218,42.6026 36.0088,41.9476 C35.4698,41.2606 34.8698,40.1806 34.6468,38.6316 C34.6018,38.3186 34.5088,38.0146 34.3568,37.7386 C34.1918,37.4376 33.9428,37.0286 33.6088,36.6066 L33.6088,35.1996 Z"/>
    <g transform="translate(46 38.003)">
      <path fill="#FEFEFE" d="M0.7953,0.76 L2.9533,0.76"/>
      <path stroke="#7A599E" stroke-linecap="round" stroke-linejoin="round" stroke-width="1.6" d="M0.7953,0.76 L2.9533,0.76"/>
    </g>
    <g transform="translate(46 37.003)">
      <path fill="#FEFEFE" d="M0.7953,0.76 L2.9533,0.76"/>
      <path stroke="#7A599E" stroke-linecap="round" stroke-linejoin="round" stroke-width="1.6" d="M0.7953,0.76 L2.9533,0.76"/>
    </g>
    <g transform="translate(46 36.003)">
      <path fill="#FEFEFE" d="M0.7953,0.76 L2.9533,0.76"/>
      <path stroke="#7A599E" stroke-linecap="round" stroke-linejoin="round" stroke-width="1.6" d="M0.7953,0.76 L2.9533,0.76"/>
    </g>
    <g transform="translate(33 24.003)">
      <path fill="#FEFEFE" d="M0.5287,0.4973 C1.1607,2.4253 2.9707,3.8163 5.1067,3.8163 C6.4807,3.8163 7.7137,3.2323 8.5917,2.3083 C9.3017,4.0863 11.0297,5.3463 13.0587,5.3463 C14.2867,5.3463 15.3947,4.8713 16.2457,4.1133 C16.9037,5.9953 18.6727,7.3523 20.7747,7.3523 C21.3697,7.3523 21.9317,7.2303 22.4577,7.0333 C22.4507,7.1413 22.4247,7.2433 22.4247,7.3523 C22.4247,10.0183 24.5827,12.1803 27.2437,12.1803 C28.8917,12.1803 30.3477,11.3503 31.2157,10.0833"/>
      <path stroke="#7A599E" stroke-linecap="round" stroke-linejoin="round" stroke-width="1.6" d="M0.5287,0.4973 C1.1607,2.4253 2.9707,3.8163 5.1067,3.8163 C6.4807,3.8163 7.7137,3.2323 8.5917,2.3083 C9.3017,4.0863 11.0297,5.3463 13.0587,5.3463 C14.2867,5.3463 15.3947,4.8713 16.2457,4.1133 C16.9037,5.9953 18.6727,7.3523 20.7747,7.3523 C21.3697,7.3523 21.9317,7.2303 22.4577,7.0333 C22.4507,7.1413 22.4247,7.2433 22.4247,7.3523 C22.4247,10.0183 24.5827,12.1803 27.2437,12.1803 C28.8917,12.1803 30.3477,11.3503 31.2157,10.0833"/>
    </g>
  </g>
</svg>
